<svg width="68" height="32" viewBox="0 0 68 32" fill="none" xmlns="http://www.w3.org/2000/svg">
<path d="M34.0681 6.06934C32.6328 6.06934 31.2577 6.62244 30.2137 7.58405L33.0388 10.4321C33.3323 10.2102 33.688 10.0862 34.0681 10.0862C34.4482 10.0862 34.8039 10.2102 35.0974 10.4321L37.9223 7.58405C36.8784 6.62258 35.5034 6.06934 34.0681 6.06934Z" fill="white"/>
<path d="M34.068 0C31.0215 0 28.1169 1.17249 25.9188 3.25463L28.74 6.09875C30.1919 4.76679 32.0842 4.01674 34.0681 4.01674C36.052 4.01674 37.9443 4.76679 39.3961 6.09875L42.2172 3.25463C40.0191 1.17262 37.1146 0 34.068 0Z" fill="white"/>
<path d="M51 6.60449V10.6212H57.5078V14.2818H10.4922V10.6212H17V6.60449H0V10.6212H6.50781V20.6805L22.0911 24.965V29.7239H26.3411V32.0001H30.3255V29.7239H37.6745V32.0001H41.6589V29.7239H45.9089V24.965L61.4922 20.6805V10.6212H68V6.60449H51Z" fill="white"/>
</svg>
