<svg width="44" height="44" viewBox="0 0 44 44" fill="none" xmlns="http://www.w3.org/2000/svg">
<circle cx="22" cy="22" r="22" fill="#E1306C"/>
<g clip-path="url(#clip0_1_379)">
<path d="M33.9764 17.0561C33.9202 15.7809 33.714 14.9042 33.4186 14.1445C33.1138 13.3381 32.645 12.6162 32.0307 12.016C31.4306 11.4065 30.7039 10.9329 29.9068 10.6329C29.1428 10.3375 28.2707 10.1313 26.9954 10.0751C25.7107 10.0141 25.3029 10 22.0444 10C18.786 10 18.3781 10.0141 17.0981 10.0703C15.8229 10.1266 14.9462 10.333 14.1867 10.6282C13.3802 10.9329 12.6583 11.4018 12.0581 12.016C11.4486 12.6162 10.9752 13.3429 10.675 14.1399C10.3796 14.9042 10.1734 15.7761 10.1172 17.0513C10.0562 18.336 10.0421 18.7439 10.0421 22.0023C10.0421 25.2608 10.0562 25.6686 10.1124 26.9486C10.1686 28.2238 10.375 29.1005 10.6704 29.8602C10.9752 30.6666 11.4486 31.3885 12.0581 31.9887C12.6583 32.5982 13.385 33.0718 14.182 33.3718C14.9462 33.6672 15.8182 33.8734 17.0936 33.9296C18.3734 33.986 18.7814 33.9999 22.0398 33.9999C25.2983 33.9999 25.7061 33.986 26.9861 33.9296C28.2613 33.8734 29.138 33.6672 29.8975 33.3718C31.5104 32.7482 32.7856 31.4729 33.4092 29.8602C33.7045 29.096 33.9109 28.2238 33.9671 26.9486C34.0233 25.6686 34.0374 25.2608 34.0374 22.0023C34.0374 18.7439 34.0326 18.336 33.9764 17.0561ZM31.8152 26.8549C31.7635 28.027 31.5666 28.6599 31.4026 29.0819C30.9993 30.1274 30.1695 30.9572 29.1239 31.3605C28.702 31.5246 28.0644 31.7215 26.8969 31.7729C25.631 31.8293 25.2514 31.8433 22.0492 31.8433C18.847 31.8433 18.4625 31.8293 17.2012 31.7729C16.0291 31.7215 15.3962 31.5246 14.9743 31.3605C14.454 31.1682 13.9803 30.8634 13.5959 30.4649C13.1974 30.0758 12.8927 29.6069 12.7004 29.0866C12.5363 28.6647 12.3394 28.027 12.2879 26.8596C12.2315 25.5937 12.2176 25.2139 12.2176 22.0117C12.2176 18.8095 12.2315 18.425 12.2879 17.1639C12.3394 15.9918 12.5363 15.3589 12.7004 14.9369C12.8927 14.4165 13.1974 13.943 13.6007 13.5584C13.9897 13.1599 14.4585 12.8552 14.979 12.6631C15.401 12.499 16.0387 12.3021 17.206 12.2504C18.4719 12.1942 18.8517 12.1801 22.0538 12.1801C25.2607 12.1801 25.6404 12.1942 26.9017 12.2504C28.0738 12.3021 28.7067 12.499 29.1287 12.6631C29.649 12.8552 30.1226 13.1599 30.507 13.5584C30.9055 13.9476 31.2103 14.4165 31.4026 14.9369C31.5666 15.3589 31.7635 15.9964 31.8152 17.1639C31.8714 18.4298 31.8855 18.8095 31.8855 22.0117C31.8855 25.2139 31.8714 25.589 31.8152 26.8549Z" fill="white"/>
<path d="M22.0445 15.8369C18.6409 15.8369 15.8793 18.5983 15.8793 22.0022C15.8793 25.406 18.6409 28.1674 22.0445 28.1674C25.4484 28.1674 28.2098 25.406 28.2098 22.0022C28.2098 18.5983 25.4484 15.8369 22.0445 15.8369ZM22.0445 26.0014C19.8364 26.0014 18.0453 24.2105 18.0453 22.0022C18.0453 19.7939 19.8364 18.0029 22.0445 18.0029C24.2529 18.0029 26.0438 19.7939 26.0438 22.0022C26.0438 24.2105 24.2529 26.0014 22.0445 26.0014Z" fill="white"/>
<path d="M29.893 15.5931C29.893 16.388 29.2485 17.0324 28.4535 17.0324C27.6587 17.0324 27.0142 16.388 27.0142 15.5931C27.0142 14.7981 27.6587 14.1538 28.4535 14.1538C29.2485 14.1538 29.893 14.7981 29.893 15.5931Z" fill="white"/>
</g>
<defs>
<clipPath id="clip0_1_379">
<rect width="24" height="24" fill="white" transform="translate(10 10)"/>
</clipPath>
</defs>
</svg>
