<svg width="44" height="44" viewBox="0 0 44 44" fill="none" xmlns="http://www.w3.org/2000/svg">
<circle cx="22" cy="22" r="22" fill="#FF0000"/>
<path d="M32.7747 16.3762C32.5154 15.4123 31.7554 14.6524 30.7916 14.3929C29.0309 13.9111 21.988 13.9111 21.988 13.9111C21.988 13.9111 14.9454 13.9111 13.1847 14.3746C12.2394 14.6339 11.4609 15.4124 11.2016 16.3762C10.7383 18.1367 10.7383 21.7879 10.7383 21.7879C10.7383 21.7879 10.7383 25.4575 11.2016 27.1996C11.4612 28.1634 12.2209 28.9233 13.1848 29.1828C14.9639 29.6647 21.9883 29.6647 21.9883 29.6647C21.9883 29.6647 29.0309 29.6647 30.7916 29.2012C31.7555 28.9418 32.5154 28.182 32.7749 27.2182C33.2381 25.4575 33.2381 21.8065 33.2381 21.8065C33.2381 21.8065 33.2567 18.1367 32.7747 16.3762ZM19.7457 25.161V18.4148L25.6022 21.7879L19.7457 25.161Z" fill="white"/>
</svg>
