<svg width="44" height="44" viewBox="0 0 44 44" fill="none" xmlns="http://www.w3.org/2000/svg">
<circle cx="22" cy="22" r="22" fill="#1DA1F2"/>
<path d="M17.8186 31.01C26.3096 31.01 30.953 23.9755 30.953 17.8756C30.953 17.6758 30.9489 17.4769 30.9399 17.279C31.8412 16.6274 32.6245 15.8142 33.2426 14.8885C32.4155 15.2563 31.5253 15.5036 30.5917 15.6155C31.5447 15.0437 32.2764 14.1397 32.6215 13.0621C31.7296 13.5908 30.7418 13.975 29.6903 14.1825C28.8479 13.2852 27.6485 12.7241 26.3205 12.7241C23.7714 12.7241 21.704 14.7914 21.704 17.3397C21.704 17.7021 21.7446 18.0544 21.8237 18.3923C17.987 18.1993 14.5848 16.3625 12.3082 13.5692C11.912 14.2513 11.6833 15.0439 11.6833 15.8896C11.6833 17.4909 12.4983 18.905 13.7375 19.732C12.9801 19.7087 12.2688 19.5008 11.6468 19.1547C11.6461 19.1741 11.6461 19.193 11.6461 19.2136C11.6461 21.4493 13.2373 23.316 15.3498 23.7389C14.9618 23.8445 14.5536 23.9013 14.1325 23.9013C13.8356 23.9013 13.5461 23.8721 13.2648 23.8181C13.8525 25.6522 15.5568 26.9869 17.5773 27.0244C15.9972 28.2627 14.0069 29.0004 11.8437 29.0004C11.4717 29.0004 11.1039 28.9791 10.7425 28.9364C12.7856 30.2459 15.2116 31.0102 17.8188 31.0102" fill="white"/>
</svg>
