<svg width="20" height="20" viewBox="0 0 20 20" fill="none" xmlns="http://www.w3.org/2000/svg">
<g clip-path="url(#clip0_1_249)">
<path d="M19.4609 0.539648C19.1133 0.191641 18.6509 0 18.1589 0H11.1476C10.6558 0 10.1934 0.191563 9.84555 0.539414L0.539492 9.84547C0.191563 10.1934 0 10.6557 0 11.1475C0 11.6393 0.191641 12.1016 0.539492 12.4493L7.55059 19.4604C7.89832 19.8084 8.3607 20 8.8525 20C9.34426 20 9.80664 19.8084 10.1545 19.4605L19.4606 10.1545C19.8084 9.80664 20 9.34422 20 8.85238V1.84113C20 1.34906 19.8084 0.886641 19.4609 0.539648ZM16.2761 4.30988C15.9526 4.30988 15.6901 4.04738 15.6901 3.72395C15.6901 3.40051 15.9526 3.13801 16.2761 3.13801C16.5995 3.13801 16.862 3.40051 16.862 3.72395C16.862 4.04738 16.5995 4.30988 16.2761 4.30988Z" fill="#FF645A"/>
<path d="M7.5507 19.4604C7.89843 19.8084 8.36081 20 8.85261 20C9.34437 20 9.80675 19.8084 10.1546 19.4605L19.4607 10.1545C19.8085 9.80665 20.0001 9.34423 20.0001 8.85239V1.84114C20.0001 1.34903 19.8085 0.886649 19.461 0.539656C19.4609 0.539578 19.4608 0.5395 19.4607 0.539383L16.6904 3.30966C16.7965 3.41571 16.8621 3.5622 16.8621 3.72391C16.8621 4.04735 16.5996 4.30985 16.2762 4.30985C16.1144 4.30985 15.968 4.24423 15.8619 4.13817L4.04523 15.9549L7.5507 19.4604Z" fill="#FF3053"/>
<path d="M10.0002 8.29079C11.0154 8.29079 11.8413 7.46485 11.8413 6.44965C11.8413 5.43446 11.0154 4.60852 10.0002 4.60852C8.985 4.60852 8.15906 5.43446 8.15906 6.44965C8.15906 7.46485 8.985 8.29079 10.0002 8.29079ZM10.0002 5.78036C10.3692 5.78036 10.6695 6.08059 10.6695 6.44961C10.6695 6.81864 10.3692 7.11887 10.0002 7.11887C9.63117 7.11887 9.33094 6.81864 9.33094 6.44961C9.33094 6.08059 9.63117 5.78036 10.0002 5.78036Z" fill="#FAF0FA"/>
<path d="M10.0002 11.7091C8.985 11.7091 8.15906 12.5351 8.15906 13.5503C8.15906 14.5655 8.985 15.3914 10.0002 15.3914C11.0154 15.3914 11.8413 14.5655 11.8413 13.5503C11.8413 12.5351 11.0154 11.7091 10.0002 11.7091ZM10.0002 14.2196C9.63117 14.2196 9.33094 13.9193 9.33094 13.5503C9.33094 13.1813 9.63117 12.8811 10.0002 12.8811C10.3692 12.8811 10.6695 13.1813 10.6695 13.5503C10.6695 13.9193 10.3692 14.2196 10.0002 14.2196Z" fill="#E1E6F5"/>
<path d="M13.7656 9.41403H6.23438C5.91078 9.41403 5.64844 9.67638 5.64844 9.99997C5.64844 10.3236 5.91078 10.5859 6.23438 10.5859H13.7656C14.0892 10.5859 14.3515 10.3236 14.3515 9.99997C14.3515 9.67638 14.0892 9.41403 13.7656 9.41403Z" fill="#FAF0FA"/>
<path d="M13.7656 10.5859C14.0892 10.5859 14.3516 10.3236 14.3516 9.99997C14.3516 9.67638 14.0892 9.41403 13.7656 9.41403H10.586L9.41412 10.5859H13.7656Z" fill="#E1E6F5"/>
</g>
<defs>
<clipPath id="clip0_1_249">
<rect width="20" height="20" fill="white"/>
</clipPath>
</defs>
</svg>
