<svg width="59" height="29" viewBox="0 0 59 29" fill="none" xmlns="http://www.w3.org/2000/svg">
<path d="M29.5593 5.9558C28.314 5.9558 27.1208 6.4317 26.2151 7.25909L28.6662 9.7096C28.9209 9.51867 29.2295 9.412 29.5593 9.412C29.8891 9.412 30.1977 9.51867 30.4524 9.7096L32.9034 7.25909C31.9976 6.43182 30.8046 5.9558 29.5593 5.9558Z" fill="#0A1329"/>
<path d="M29.559 0.733334C26.9157 0.733334 24.3956 1.74216 22.4884 3.53367L24.9362 5.9808C26.1959 4.83476 27.8378 4.1894 29.5591 4.1894C31.2804 4.1894 32.9222 4.83476 34.1819 5.9808L36.6296 3.53367C34.7225 1.74227 32.2024 0.733334 29.559 0.733334Z" fill="#0A1329"/>
<path d="M44.25 6.4159V9.87196H49.8965V13.0216H9.10354V9.87196H14.75V6.4159H0V9.87196H5.64648V18.5271L19.1673 22.2136V26.3083H22.8548V28.2667H26.3118V26.3083H32.6882V28.2667H36.1452V26.3083H39.8327V22.2136L53.3535 18.5271V9.87196H59V6.4159H44.25Z" fill="#0A1329"/>
</svg>
